<svg xmlns="http://www.w3.org/2000/svg" viewBox="0 0 512 512">
  <defs>
    <radialGradient id="bg" cx="50%" cy="50%" r="72%">
      <stop offset="0%" stop-color="#061a3a"/>
      <stop offset="55%" stop-color="#04132b"/>
      <stop offset="100%" stop-color="#010814"/>
    </radialGradient>
    <radialGradient id="coreGlow" cx="50%" cy="50%" r="50%">
      <stop offset="0%" stop-color="#ffffff" stop-opacity="1"/>
      <stop offset="25%" stop-color="#d9f3ff" stop-opacity="0.98"/>
      <stop offset="58%" stop-color="#63b8ff" stop-opacity="0.45"/>
      <stop offset="100%" stop-color="#4aa9ff" stop-opacity="0"/>
    </radialGradient>
    <linearGradient id="streakGrad" x1="0%" y1="0%" x2="100%" y2="0%">
      <stop offset="0%" stop-color="#ffffff" stop-opacity="0"/>
      <stop offset="12%" stop-color="#d8f3ff" stop-opacity="0.42"/>
      <stop offset="38%" stop-color="#9addff" stop-opacity="0.92"/>
      <stop offset="72%" stop-color="#4aa9ff" stop-opacity="0.72"/>
      <stop offset="100%" stop-color="#4aa9ff" stop-opacity="0"/>
    </linearGradient>
    <filter id="bloom" x="-60%" y="-60%" width="220%" height="220%">
      <feGaussianBlur stdDeviation="8" result="blur"/>
      <feMerge>
        <feMergeNode in="blur"/>
        <feMergeNode in="SourceGraphic"/>
      </feMerge>
    </filter>
    <filter id="soft" x="-35%" y="-35%" width="170%" height="170%">
      <feGaussianBlur stdDeviation="0.8"/>
    </filter>
    <clipPath id="clipCircle">
      <circle cx="256" cy="256" r="228"/>
    </clipPath>
  </defs>

  <circle cx="256" cy="256" r="228" fill="url(#bg)"/>
  <circle cx="256" cy="256" r="226" fill="none" stroke="#3e8ad0" stroke-opacity="0.22" stroke-width="1.5"/>
  <g clip-path="url(#clipCircle)">
    <g transform="translate(256 256)" filter="url(#soft)" opacity="0.96">
      <g opacity="0.96">
      <rect x="32" y="-2.5" width="225" height="5" rx="2.5" fill="url(#streakGrad)" transform="rotate(-18)"/>
      <rect x="32" y="-2.5" width="225" height="5" rx="2.5" fill="url(#streakGrad)" transform="rotate(12)"/>
      <rect x="32" y="-2.5" width="225" height="5" rx="2.5" fill="url(#streakGrad)" transform="rotate(34)"/>
      <rect x="32" y="-2.5" width="225" height="5" rx="2.5" fill="url(#streakGrad)" transform="rotate(58)"/>
      <rect x="32" y="-2.5" width="225" height="5" rx="2.5" fill="url(#streakGrad)" transform="rotate(103)"/>
      <rect x="32" y="-2.5" width="225" height="5" rx="2.5" fill="url(#streakGrad)" transform="rotate(141)"/>
      <rect x="32" y="-2.5" width="225" height="5" rx="2.5" fill="url(#streakGrad)" transform="rotate(166)"/>
      <rect x="32" y="-2.5" width="225" height="5" rx="2.5" fill="url(#streakGrad)" transform="rotate(-142)"/>
      <rect x="32" y="-2.5" width="225" height="5" rx="2.5" fill="url(#streakGrad)" transform="rotate(-92)"/>
      <rect x="32" y="-2.5" width="225" height="5" rx="2.5" fill="url(#streakGrad)" transform="rotate(-62)"/>
      </g>
      <g opacity="0.80">
      <rect x="28" y="-1.9" width="170" height="3.8" rx="1.9" fill="url(#streakGrad)" transform="rotate(-8)"/>
      <rect x="28" y="-1.9" width="170" height="3.8" rx="1.9" fill="url(#streakGrad)" transform="rotate(22)"/>
      <rect x="28" y="-1.9" width="170" height="3.8" rx="1.9" fill="url(#streakGrad)" transform="rotate(44)"/>
      <rect x="28" y="-1.9" width="170" height="3.8" rx="1.9" fill="url(#streakGrad)" transform="rotate(72)"/>
      <rect x="28" y="-1.9" width="170" height="3.8" rx="1.9" fill="url(#streakGrad)" transform="rotate(88)"/>
      <rect x="28" y="-1.9" width="170" height="3.8" rx="1.9" fill="url(#streakGrad)" transform="rotate(121)"/>
      <rect x="28" y="-1.9" width="170" height="3.8" rx="1.9" fill="url(#streakGrad)" transform="rotate(155)"/>
      <rect x="28" y="-1.9" width="170" height="3.8" rx="1.9" fill="url(#streakGrad)" transform="rotate(-128)"/>
      <rect x="28" y="-1.9" width="170" height="3.8" rx="1.9" fill="url(#streakGrad)" transform="rotate(-101)"/>
      <rect x="28" y="-1.9" width="170" height="3.8" rx="1.9" fill="url(#streakGrad)" transform="rotate(-73)"/>
      <rect x="28" y="-1.9" width="170" height="3.8" rx="1.9" fill="url(#streakGrad)" transform="rotate(-49)"/>
      </g>
      <g opacity="0.42">
      <rect x="20" y="-1.0" width="126" height="2.0" rx="1.0" fill="url(#streakGrad)" transform="rotate(-31)"/>
      <rect x="20" y="-1.0" width="126" height="2.0" rx="1.0" fill="url(#streakGrad)" transform="rotate(-21)"/>
      <rect x="20" y="-1.0" width="126" height="2.0" rx="1.0" fill="url(#streakGrad)" transform="rotate(-11)"/>
      <rect x="20" y="-1.0" width="126" height="2.0" rx="1.0" fill="url(#streakGrad)" transform="rotate(2)"/>
      <rect x="20" y="-1.0" width="126" height="2.0" rx="1.0" fill="url(#streakGrad)" transform="rotate(17)"/>
      <rect x="20" y="-1.0" width="126" height="2.0" rx="1.0" fill="url(#streakGrad)" transform="rotate(29)"/>
      <rect x="20" y="-1.0" width="126" height="2.0" rx="1.0" fill="url(#streakGrad)" transform="rotate(39)"/>
      <rect x="20" y="-1.0" width="126" height="2.0" rx="1.0" fill="url(#streakGrad)" transform="rotate(51)"/>
      <rect x="20" y="-1.0" width="126" height="2.0" rx="1.0" fill="url(#streakGrad)" transform="rotate(64)"/>
      <rect x="20" y="-1.0" width="126" height="2.0" rx="1.0" fill="url(#streakGrad)" transform="rotate(79)"/>
      <rect x="20" y="-1.0" width="126" height="2.0" rx="1.0" fill="url(#streakGrad)" transform="rotate(95)"/>
      <rect x="20" y="-1.0" width="126" height="2.0" rx="1.0" fill="url(#streakGrad)" transform="rotate(112)"/>
      <rect x="20" y="-1.0" width="126" height="2.0" rx="1.0" fill="url(#streakGrad)" transform="rotate(129)"/>
      <rect x="20" y="-1.0" width="126" height="2.0" rx="1.0" fill="url(#streakGrad)" transform="rotate(148)"/>
      <rect x="20" y="-1.0" width="126" height="2.0" rx="1.0" fill="url(#streakGrad)" transform="rotate(168)"/>
      <rect x="20" y="-1.0" width="126" height="2.0" rx="1.0" fill="url(#streakGrad)" transform="rotate(-167)"/>
      <rect x="20" y="-1.0" width="126" height="2.0" rx="1.0" fill="url(#streakGrad)" transform="rotate(-151)"/>
      <rect x="20" y="-1.0" width="126" height="2.0" rx="1.0" fill="url(#streakGrad)" transform="rotate(-136)"/>
      <rect x="20" y="-1.0" width="126" height="2.0" rx="1.0" fill="url(#streakGrad)" transform="rotate(-118)"/>
      <rect x="20" y="-1.0" width="126" height="2.0" rx="1.0" fill="url(#streakGrad)" transform="rotate(-97)"/>
      <rect x="20" y="-1.0" width="126" height="2.0" rx="1.0" fill="url(#streakGrad)" transform="rotate(-83)"/>
      <rect x="20" y="-1.0" width="126" height="2.0" rx="1.0" fill="url(#streakGrad)" transform="rotate(-66)"/>
      <rect x="20" y="-1.0" width="126" height="2.0" rx="1.0" fill="url(#streakGrad)" transform="rotate(-52)"/>
      <rect x="20" y="-1.0" width="126" height="2.0" rx="1.0" fill="url(#streakGrad)" transform="rotate(-37)"/>
      </g>
    </g>
  </g>

  <g filter="url(#bloom)">
    <circle cx="256" cy="256" r="47" fill="url(#coreGlow)"/>
    <circle cx="256" cy="256" r="9.5" fill="#ffffff" opacity="0.98"/>
  </g>
</svg>
